<?xml version="1.0" standalone="no"?>
<!DOCTYPE svg PUBLIC "-//W3C//DTD SVG 20010904//EN"
 "http://www.w3.org/TR/2001/REC-SVG-20010904/DTD/svg10.dtd">
<svg version="1.0" xmlns="http://www.w3.org/2000/svg"
 width="691.000000pt" height="691.000000pt" viewBox="0 0 691.000000 691.000000"
 preserveAspectRatio="xMidYMid meet">
<metadata>
Created by potrace 1.11, written by Peter Selinger 2001-2013
</metadata>
<g transform="translate(0.000000,691.000000) scale(0.100000,-0.100000)"
fill="#000000" stroke="none">
<path d="M0 3455 l0 -3455 3455 0 3455 0 0 1585 0 1584 -102 4 -103 3 103 2
102 2 0 1865 0 1865 -3455 0 -3455 0 0 -3455z m4045 2456 c482 -45 706 -134
956 -381 196 -194 301 -386 350 -640 16 -83 16 -336 0 -420 -68 -348 -299
-668 -593 -820 -38 -19 -68 -37 -68 -40 0 -3 30 -16 68 -29 37 -13 90 -33 117
-46 l50 -23 -1733 -1 -1732 -1 0 1203 c0 662 4 1207 8 1211 12 12 2440 0 2577
-13z m-3857 -2128 c-32 -2 -86 -2 -120 0 -35 2 -9 3 57 3 66 0 94 -1 63 -3z
m4944 -395 c325 -240 493 -603 475 -1028 -9 -211 -50 -382 -137 -567 -200
-427 -536 -684 -996 -763 -217 -37 -385 -42 -1716 -47 l-1298 -5 0 1236 0
1236 1794 0 1794 0 84 -62z"/>
<path d="M2470 4530 l0 -570 553 0 c795 1 904 10 1075 92 143 68 237 182 277
334 19 74 19 230 0 313 -43 182 -179 313 -380 366 -99 26 -320 34 -937 35
l-588 0 0 -570z"/>
<path d="M2470 2469 l0 -662 698 6 c857 7 929 13 1092 95 147 73 255 209 296
372 22 86 22 263 0 354 -46 194 -179 343 -370 417 -165 63 -389 79 -1142 79
l-574 0 0 -661z"/>
</g>
</svg>
